<svg xmlns="http://www.w3.org/2000/svg" xmlns:xlink="http://www.w3.org/1999/xlink" version="1.1" x="0px" y="0px" viewBox="0 0 100 125" style="enable-background:new 0 0 100 100;" xml:space="preserve"><style type="text/css">
	.st0{fill:none;}
</style><path d="M55.4544067,44.6790047c-1.5820313,1.781189-2.9876709,3.9555054-4.0648193,6.2650757  c-0.8271484-3.2327881-2.1905518-6.3890381-3.8912354-9.0142822c1.6343994-10.8173218-3.0148315-22.3726196-35.6292725-20.2875366  c8.9199829,4.3311157,8.1641846,32.2751465,32.5552368,26.3098755  c-4.649353-11.5284424-16.8043823-19.4115601-22.0184326-21.5325317  c13.8120728,4.9744873,20.9470825,12.3939209,24.3560791,19.0386963c0,0,0.0001831-0.0007324,0.0003052-0.0011597  c1.7958984,4.1861572,3.0006104,9.2212524,2.2528076,14.6849976c-8.5502319,1.2711792-15.1931152,8.9715614-15.6350708,18.4614906  h36.2400513c-0.4741821-10.1817627-8.0838623-18.3072548-17.5324097-18.6354408  c0.1628418-1.2479248,0.2131348-2.5504761,0.128418-3.8931885c0.6298218-3.1433716,1.9207764-5.939209,3.4053955-8.3248291  c0.000061,0.0003662,0.000061,0.0006714,0.000061,0.0006714c3.7320557-5.1677246,10.7079468-10.5097656,23.0032349-12.9290771  c-4.6727905,1.1184082-15.9443359,6.2053833-21.3517456,15.3347168  c19.8135986,8.1738281,22.7734985-15.5031128,30.8579102-18.0093384  C60.8787842,26.1887703,55.4680786,35.3406868,55.4544067,44.6790047z"/><text x="0" y="115" fill="#000000" font-size="5px" font-weight="bold" font-family="'Helvetica Neue', Helvetica, Arial-Unicode, Arial, Sans-serif">Created by Ker'is</text><text x="0" y="120" fill="#000000" font-size="5px" font-weight="bold" font-family="'Helvetica Neue', Helvetica, Arial-Unicode, Arial, Sans-serif">from the Noun Project</text></svg>