<svg xmlns="http://www.w3.org/2000/svg" data-name="Layer 1" viewBox="0 0 100 125" x="0px" y="0px"><title>Artboard 9</title><path d="M4.32,86h36l1.57-20.51H58.11L59.68,86h36a3.32,3.32,0,0,0,3.07-4.56l-25.87-64A5.66,5.66,0,0,0,67.64,14H54.15l1,13.67H44.8l1-13.67H32.36a5.66,5.66,0,0,0-5.24,3.54l-25.87,64A3.32,3.32,0,0,0,4.32,86Zm39.84-50.1H55.84l1.49,19.41H42.67Z"/><text x="0" y="115" fill="#000000" font-size="5px" font-weight="bold" font-family="'Helvetica Neue', Helvetica, Arial-Unicode, Arial, Sans-serif">Created by Gregor Cresnar</text><text x="0" y="120" fill="#000000" font-size="5px" font-weight="bold" font-family="'Helvetica Neue', Helvetica, Arial-Unicode, Arial, Sans-serif">from the Noun Project</text></svg>