<svg xmlns="http://www.w3.org/2000/svg" data-name="Layer 2" viewBox="0 0 64 80" x="0px" y="0px"><title>nature-glyph-1</title><rect x="38" y="2" width="2" height="3"/><rect x="31.98961" y="4.48932" width="1.99979" height="3.00037" transform="translate(5.42718 25.08139) rotate(-45)"/><rect x="29" y="11" width="3" height="2"/><rect x="31.48932" y="17.0106" width="3.00037" height="1.99979" transform="translate(-3.07294 28.60225) rotate(-45)"/><rect x="38" y="19" width="2" height="3"/><rect x="44.0106" y="16.51031" width="1.99979" height="3.00037" transform="translate(0.44792 37.10238) rotate(-45)"/><rect x="46" y="11" width="3" height="2"/><rect x="43.51031" y="4.98961" width="3.00037" height="1.99979" transform="translate(8.94805 33.58151) rotate(-45)"/><path d="M42.10547,59.44727A2.60342,2.60342,0,0,0,39.76416,58h-.52832a2.60342,2.60342,0,0,0-2.34131,1.44727A4.593,4.593,0,0,1,32.76416,62H46.23584A4.593,4.593,0,0,1,42.10547,59.44727Z"/><path d="M28.10547,59.44727A2.60342,2.60342,0,0,0,25.76416,58h-.52832a2.60342,2.60342,0,0,0-2.34131,1.44727A4.593,4.593,0,0,1,18.76416,62H32.23584A4.593,4.593,0,0,1,28.10547,59.44727Z"/><path d="M14.10547,59.44727A2.60342,2.60342,0,0,0,11.76416,58h-.52832a2.60342,2.60342,0,0,0-2.34131,1.44727A4.593,4.593,0,0,1,4.76416,62H18.23584A4.593,4.593,0,0,1,14.10547,59.44727Z"/><path d="M56.10547,59.44727A2.60342,2.60342,0,0,0,53.76416,58h-.52832a2.60342,2.60342,0,0,0-2.34131,1.44727A4.593,4.593,0,0,1,46.76416,62H60.23584A4.593,4.593,0,0,1,56.10547,59.44727Z"/><path d="M2,48v4.70636A2.58965,2.58965,0,0,0,4.23584,54h.52832a2.60342,2.60342,0,0,0,2.34131-1.44727A4.60045,4.60045,0,0,1,11,50h1a4.60045,4.60045,0,0,1,3.89453,2.55273A2.60342,2.60342,0,0,0,18.23584,54h.52832a2.60342,2.60342,0,0,0,2.34131-1.44727A4.60045,4.60045,0,0,1,25,50h1a4.60045,4.60045,0,0,1,3.89453,2.55273A2.60342,2.60342,0,0,0,32.23584,54h.52832a2.60342,2.60342,0,0,0,2.34131-1.44727A4.60045,4.60045,0,0,1,39,50h1a4.60045,4.60045,0,0,1,3.89453,2.55273A2.60342,2.60342,0,0,0,46.23584,54h.52832a2.60342,2.60342,0,0,0,2.34131-1.44727A4.60045,4.60045,0,0,1,53,50h1a4.60045,4.60045,0,0,1,3.89453,2.55273A2.60342,2.60342,0,0,0,60.23584,54h.52832A2.5998,2.5998,0,0,0,62,53.67358V48Z"/><path d="M60.23584,56a4.593,4.593,0,0,1-4.13037-2.55273A2.60342,2.60342,0,0,0,53.76416,52h-.52832a2.60342,2.60342,0,0,0-2.34131,1.44727A4.593,4.593,0,0,1,46.76416,56h-.52832a4.593,4.593,0,0,1-4.13037-2.55273A2.60342,2.60342,0,0,0,39.76416,52h-.52832a2.60342,2.60342,0,0,0-2.34131,1.44727A4.593,4.593,0,0,1,32.76416,56h-.52832a4.593,4.593,0,0,1-4.13037-2.55273A2.60342,2.60342,0,0,0,25.76416,52h-.52832a2.60342,2.60342,0,0,0-2.34131,1.44727A4.593,4.593,0,0,1,18.76416,56h-.52832a4.593,4.593,0,0,1-4.13037-2.55273A2.60342,2.60342,0,0,0,11.76416,52h-.52832a2.60342,2.60342,0,0,0-2.34131,1.44727A4.593,4.593,0,0,1,4.76416,56H4.23584A4.60469,4.60469,0,0,1,2,55.41632v3.29A2.58965,2.58965,0,0,0,4.23584,60h.52832a2.60342,2.60342,0,0,0,2.34131-1.44727A4.60045,4.60045,0,0,1,11,56h1a4.60045,4.60045,0,0,1,3.89453,2.55273A2.60342,2.60342,0,0,0,18.23584,60h.52832a2.60342,2.60342,0,0,0,2.34131-1.44727A4.60045,4.60045,0,0,1,25,56h1a4.60045,4.60045,0,0,1,3.89453,2.55273A2.60342,2.60342,0,0,0,32.23584,60h.52832a2.60342,2.60342,0,0,0,2.34131-1.44727A4.60045,4.60045,0,0,1,39,56h1a4.60045,4.60045,0,0,1,3.89453,2.55273A2.60342,2.60342,0,0,0,46.23584,60h.52832a2.60342,2.60342,0,0,0,2.34131-1.44727A4.60045,4.60045,0,0,1,53,56h1a4.60045,4.60045,0,0,1,3.89453,2.55273A2.60342,2.60342,0,0,0,60.23584,60h.52832A2.5998,2.5998,0,0,0,62,59.67358V55.8313A4.65352,4.65352,0,0,1,60.76416,56Z"/><path d="M57,36.58948V30.41406l3.293,3.293L61.707,32.293,57,27.58594V25.41406l3.293,3.293L61.707,27.293,57,22.58594V20.41406l3.293,3.293L61.707,22.293,56,16.58594l-5.707,5.707L51.707,23.707,55,20.41406v2.17188l-4.707,4.707L51.707,28.707,55,25.41406v2.17188l-4.707,4.707L51.707,33.707,55,30.41406v5.35321A29.19587,29.19587,0,0,0,45,34a29.54643,29.54643,0,0,0-9.6264,1.59064,25.15675,25.15675,0,0,1,7.44574,10.384L42.82855,46H62V39.61688A24.39763,24.39763,0,0,0,57,36.58948ZM43,40H41V38h2Zm2-2h6v2H45Zm9,6H48V42h6Zm6,0H56V42h4Z"/><path d="M22,30.28711v-5.873l3.293,3.293L26.707,26.293,22,21.58594V19.41406l3.293,3.293L26.707,21.293,22,16.58594V14.41406l3.293,3.293L26.707,16.293,21,10.58594l-5.707,5.707L16.707,17.707,20,14.41406v2.17188l-4.707,4.707L16.707,22.707,20,19.41406v2.17188l-4.707,4.707L16.707,27.707,20,24.41406v5.19831A57.30481,57.30481,0,0,0,9,27.36914V22.41406l3.293,3.293L13.707,24.293,9,19.58594V17.41406l3.293,3.293L13.707,19.293,9,14.58594V12.41406l3.293,3.293L13.707,14.293,8,8.58594,2.293,14.293,3.707,15.707,7,12.41406v2.17188L2.293,19.293,3.707,20.707,7,17.41406v2.17188L2.293,24.293,3.707,25.707,7,22.41406v4.77338Q4.54548,27.00324,2,27v6H6v2H2V46H40.6781C37.87494,39.07758,31.08154,33.55707,22,30.28711ZM10,41H6V39h4Zm1-6H9V33h2Zm11,6H14V39h8Z"/><circle cx="39" cy="12" r="5"/><text x="0" y="79" fill="#000000" font-size="5px" font-weight="bold" font-family="'Helvetica Neue', Helvetica, Arial-Unicode, Arial, Sans-serif">Created by I Putu Kharismayadi</text><text x="0" y="84" fill="#000000" font-size="5px" font-weight="bold" font-family="'Helvetica Neue', Helvetica, Arial-Unicode, Arial, Sans-serif">from the Noun Project</text></svg>