<?xml version="1.0" encoding="UTF-8" standalone="no"?>
<!-- Created with Inkscape (http://www.inkscape.org/) -->
<svg xmlns:dc="http://purl.org/dc/elements/1.1/" xmlns:cc="http://creativecommons.org/ns#" xmlns:rdf="http://www.w3.org/1999/02/22-rdf-syntax-ns#" xmlns:svg="http://www.w3.org/2000/svg" xmlns="http://www.w3.org/2000/svg" xmlns:sodipodi="http://sodipodi.sourceforge.net/DTD/sodipodi-0.dtd" xmlns:inkscape="http://www.inkscape.org/namespaces/inkscape" version="1.1" id="svg2" width="460.72852" height="460.72656" viewBox="0 0 460.72851 460.72657" sodipodi:docname="No tomar alcohol.svg" inkscape:version="0.92.1 unknown" inkscape:export-filename="/home/luigi/Escritorio/path4594.png" inkscape:export-xdpi="89" inkscape:export-ydpi="89">
  <metadata id="metadata8">
    <rdf:RDF>
      <cc:Work rdf:about="">
        <dc:format>image/svg+xml</dc:format>
        <dc:type rdf:resource="http://purl.org/dc/dcmitype/StillImage"/>
        <dc:title/>
      </cc:Work>
    </rdf:RDF>
  </metadata>
  <defs id="defs6">
    <inkscape:path-effect effect="spiro" id="path-effect4623" is_visible="true"/>
    <inkscape:path-effect effect="spiro" id="path-effect4590" is_visible="true"/>
    <inkscape:path-effect effect="spiro" id="path-effect4539" is_visible="true"/>
  </defs>
  <sodipodi:namedview pagecolor="#ffffff" bordercolor="#666666" borderopacity="1" objecttolerance="10" gridtolerance="10" guidetolerance="10" inkscape:pageopacity="0" inkscape:pageshadow="2" inkscape:window-width="1280" inkscape:window-height="776" id="namedview4" showgrid="false" inkscape:zoom="0.54663397" inkscape:cx="342.52147" inkscape:cy="191.85674" inkscape:window-x="0" inkscape:window-y="24" inkscape:window-maximized="1" inkscape:current-layer="svg2" inkscape:object-paths="true" inkscape:snap-global="false" fit-margin-top="0" fit-margin-left="0" fit-margin-right="0" fit-margin-bottom="0"/>
  <g id="g4492">
    <path inkscape:connector-curvature="0" id="path4639" d="M 230.36521,5.3632823 C 106.37319,5.3632811 5.3642569,106.37074 5.3642579,230.36328 c 0,123.99255 101.0089321,225 225.0009521,225 123.99202,0 224.99905,-101.00745 224.99905,-225 0,-123.99254 -101.00703,-224.9999977 -224.99905,-224.9999977 z" style="color:#000000;font-style:normal;font-variant:normal;font-weight:normal;font-stretch:normal;font-size:medium;line-height:normal;font-family:sans-serif;font-variant-ligatures:normal;font-variant-position:normal;font-variant-caps:normal;font-variant-numeric:normal;font-variant-alternates:normal;font-feature-settings:normal;text-indent:0;text-align:start;text-decoration:none;text-decoration-line:none;text-decoration-style:solid;text-decoration-color:#000000;letter-spacing:normal;word-spacing:normal;text-transform:none;writing-mode:lr-tb;direction:ltr;text-orientation:mixed;dominant-baseline:auto;baseline-shift:baseline;text-anchor:start;white-space:normal;shape-padding:0;clip-rule:nonzero;display:inline;overflow:visible;visibility:visible;opacity:1;isolation:auto;mix-blend-mode:normal;color-interpolation:sRGB;color-interpolation-filters:linearRGB;solid-color:#000000;solid-opacity:1;vector-effect:none;fill:#ffffff;fill-opacity:1;fill-rule:evenodd;stroke:none;stroke-width:45.90565491;stroke-linecap:round;stroke-linejoin:round;stroke-miterlimit:4;stroke-dasharray:none;stroke-dashoffset:0;stroke-opacity:1;marker:none;color-rendering:auto;image-rendering:auto;shape-rendering:auto;text-rendering:auto;enable-background:accumulate"/>
    <path inkscape:connector-curvature="0" id="path4594" d="m 271.74012,80.477105 c -2.0356,0 -3.67413,1.640439 -3.67413,3.676047 v 64.530168 c 0,1.76994 -0.20092,1.8592 -1.94961,2.87101 -8.01085,4.63519 -22.33088,17.03162 -22.33088,31.44193 v 182.62341 c 0,4.03451 3.24697,7.28151 7.28147,7.28151 h 63.54745 c 4.0345,0 7.28148,-3.247 7.28148,-7.28151 V 182.99626 c 0,-14.41031 -14.32003,-26.80674 -22.33088,-31.44193 -1.74869,-1.01181 -1.94961,-1.10107 -1.94961,-2.87101 V 84.153152 c 0,-2.035608 -1.63853,-3.676047 -3.67413,-3.676047 z M 148.07133,218.7266 c -6.97968,24.44731 -15.86302,52.45324 -12.59809,69.07229 4.90581,24.97136 32.12639,33.47321 36.08882,35.23243 1.97523,0.87696 3.50748,1.73525 2.98166,6.52799 l -0.021,21.84263 c -0.009,9.29292 -14.8453,14.59055 -22.30799,14.6851 l -7.80418,0.0973 c -2.26445,0.0287 -3.09026,0.24414 -3.13235,1.96489 l -0.0668,2.7432 c -0.0287,1.17281 1.43554,1.9191 2.1976,1.9191 h 70.70495 c 0.76206,0 2.22632,-0.74629 2.19761,-1.9191 l -0.0668,-2.7432 c -0.0422,-1.72075 -0.86791,-1.93617 -3.13235,-1.96489 l -7.80418,-0.0973 c -7.46269,-0.0946 -22.2992,-5.39218 -22.30799,-14.6851 l -0.021,-21.84263 c -0.52583,-4.79274 1.00641,-5.65103 2.98164,-6.52799 3.96243,-1.75922 31.18301,-10.26107 36.08882,-35.23243 3.26493,-16.61905 -5.61841,-44.62498 -12.59809,-69.07229 z" style="fill:#000000;fill-rule:evenodd;stroke:none;stroke-width:0.9767161px;stroke-linecap:butt;stroke-linejoin:miter;stroke-opacity:1"/>
    <path inkscape:connector-curvature="0" id="path4619" d="M 230.36521,5.3632823 C 106.37319,5.3632811 5.3642569,106.37074 5.3642579,230.36328 c 0,123.99255 101.0089321,225 225.0009521,225 123.99202,0 224.99905,-101.00745 224.99905,-225 0,-123.99254 -101.00703,-224.9999977 -224.99905,-224.9999977 z m 0,45.9057537 c 99.18282,0 179.09349,79.911004 179.09349,179.094244 0,41.28643 -13.85675,79.22538 -37.17618,109.4592 L 120.90647,88.445371 C 151.14048,65.126049 189.07915,51.269036 230.36521,51.269036 Z M 88.444084,120.90408 339.82395,372.2831 c -30.23355,23.31909 -68.17289,37.17443 -109.45874,37.17443 -99.18282,0 -179.09539,-79.91101 -179.09539,-179.09425 0,-41.28602 13.854884,-79.22553 37.174264,-109.4592 z" style="color:#000000;font-style:normal;font-variant:normal;font-weight:normal;font-stretch:normal;font-size:medium;line-height:normal;font-family:sans-serif;font-variant-ligatures:normal;font-variant-position:normal;font-variant-caps:normal;font-variant-numeric:normal;font-variant-alternates:normal;font-feature-settings:normal;text-indent:0;text-align:start;text-decoration:none;text-decoration-line:none;text-decoration-style:solid;text-decoration-color:#000000;letter-spacing:normal;word-spacing:normal;text-transform:none;writing-mode:lr-tb;direction:ltr;text-orientation:mixed;dominant-baseline:auto;baseline-shift:baseline;text-anchor:start;white-space:normal;shape-padding:0;clip-rule:nonzero;display:inline;overflow:visible;visibility:visible;opacity:1;isolation:auto;mix-blend-mode:normal;color-interpolation:sRGB;color-interpolation-filters:linearRGB;solid-color:#000000;solid-opacity:1;vector-effect:none;fill:#ff0000;fill-opacity:1;fill-rule:evenodd;stroke:none;stroke-width:45.90565491;stroke-linecap:round;stroke-linejoin:round;stroke-miterlimit:4;stroke-dasharray:none;stroke-dashoffset:0;stroke-opacity:1;marker:none;color-rendering:auto;image-rendering:auto;shape-rendering:auto;text-rendering:auto;enable-background:accumulate"/>
  </g>
</svg>