<?xml version="1.0" encoding="UTF-8" standalone="no"?>
<svg xmlns:inkscape="http://www.inkscape.org/namespaces/inkscape" xmlns:rdf="http://www.w3.org/1999/02/22-rdf-syntax-ns#" xmlns="http://www.w3.org/2000/svg" xmlns:cc="http://creativecommons.org/ns#" xmlns:dc="http://purl.org/dc/elements/1.1/" xmlns:sodipodi="http://sodipodi.sourceforge.net/DTD/sodipodi-0.dtd" id="svg1618" inkscape:version="0.48.3.1 r9886" viewBox="0 0 359.58 508.33" sodipodi:version="0.32" version="1.1" sodipodi:docname="_svgclean2.svg">
  <sodipodi:namedview id="base" bordercolor="#666666" inkscape:pageshadow="2" inkscape:window-y="0" pagecolor="#ffffff" inkscape:window-height="645" inkscape:window-maximized="0" inkscape:zoom="0.43415836" inkscape:window-x="0" showgrid="false" borderopacity="1.0" inkscape:current-layer="svg1618" inkscape:cx="76.21703" inkscape:cy="50.124787" inkscape:window-width="674" inkscape:pageopacity="0.0"/>
  <path id="path719" style="stroke-linejoin:round;fill-rule:evenodd;stroke:#ffffff;stroke-linecap:round;stroke-width:1.175;fill:#ffffff" inkscape:connector-curvature="0" d="m126.75 0.5875-0.87 0.72-1.88-0.16-1 2.91-1.87 1.84-2.72 0.16 0.4 0.87-1.12-0.71 0.4-0.32-2 1.16 0.44 3.19-0.15 0.56 0.28 0.56 0.28-0.56-0.13 0.72-1.31 2.44 0.31 3.75-1.03 2.15-0.84 1.75v0.56h-0.28l-0.88 3.04-0.15 0.28-0.57 1.72 0.13 0.43 2.47-0.12-0.6 0.84-2.43-0.28-1.29 4.91 0.13 0.4 0.59-0.28-0.43 0.44 1 0.44 0.56 1.31 0.75-1.47h0.12l-0.56 2.31-1.87-1-0.6 1 0.44 1.72-1.16 0.6 1.03-0.72-1.31-4.19 0.6-0.72-0.88-0.16-0.72 0.72-3.03 6.07 0.72 0.28 0.28-0.28 0.88 0.59-0.88-0.16-0.28 0.44 0.16-0.44-1.44-0.15-3.47 8.34 0.87 0.59 1.72-0.59v-0.56h-1.15l0.56-1.91 0.59 0.47 1.88-0.16-1.88 1.04 1.72 0.84 1.44 1.75 1.59-0.59 0.44 0.43 1.16-0.72 1 0.88-1.28-0.16-0.6 0.57-0.28-0.41-1.87 1.28 1.43 0.56 1 1.6 1.44-0.28-0.41 0.12 0.41 0.31-1.72 0.41 0.72 4.19-1.28-2 0.12-2.75-1-1.16-0.87 0.28v-0.72l-2 4.47-2.47 1.6-0.41-0.29-0.87 1.16-0.44 1 0.88 1.44v3.03l1.72 2.59-1.16 2 0.44 0.28 1-0.84h0.72l-1.44 0.84 1.59 1.16-0.56-0.12 0.28 1-0.59-0.72-0.44 0.28 0.31-0.72-1.15 0.44-0.6-0.6-2.59 4.07-2.16 8.18-0.12 2.03 3.03 4.16 0.56 2.75-0.56-0.16 0.12 2.32-2.15 5.47 1.43 9.81 1.16 2 0.72 3.03-1.16 1.72 0.28 1.15-1.28 1.16-0.15 0.13-1.16 3.31-0.12 0.59-2.16 4.91-2.16 9.19-0.43 0.59 1.28 4.16-2 3.18-1.6 4.75-0.28 0.44 0.16 1.88-1.03 1.84-0.88 0.87-0.72 2.6-0.12 0.15-2.75 2.72-0.28-0.12-0.72 2.28-2.6 2.75-0.28 1.16h0.57l-1 3.43-0.29 0.6-1.15 4.75-1.6 2.15-3.31 1.16-2.59 1.87-0.72 0.13-3 1.47 0.12-0.6-2.15 0.88-3.47 0.28h-0.56l-2.88 0.44-2.31-0.44-1.16-0.87-0.56-1.44-2.47-0.88-0.4-0.72-1.6 0.16-0.72-0.72-1.87-0.44-0.88-1-0.28 0.88-0.12-1.31-1.16-0.57-1.75-2.03-0.72 0.44 0.16-0.56-0.72-0.44-3.03-0.28-1.56-1.31-1.88-3.44-0.44-2.75 0.44-1.44-1.59-0.72-1.32-1.59v-1l-7.03-2.16-3.18-2.03-3.72 0.28-3.03-1.28h-0.72l-4.35-1.87v-0.16l-1.28-0.56-3.34-3.41-5.6 248.19 71.13 3.47-4.44 78.62 80.5 6.19 50.97 5.19 51.34 6.19 2.07-1.29 1.15-2.46 1.32-0.04 5.59-3.28 0.59 0.44 2.44-2.5 3.53 1 2.1 0.34 3.15 0.29 3.91 0.09 4.31 0.22 1.88-0.6 3.37 3.63 1.81 0.28v0.41l1-0.28 1.16 0.75 2.87-0.75 2.6 1.87h0.72l0.56 1.31 1.87 0.85 0.29 2.59 1.31-0.28 2.72 2.31 0.72 1.94-0.41 3.09 0.72 1.32-0.31 0.56 1.87 0.72 2.88-2.44v-1.31l1.31-1.57 2.31-0.31 2.16-1.28 0.87 2.59 0.72-0.15 0.56 0.44 0.57-1.29 2.46 0.57 2-1.16-0.43-0.44 1.15-2.87 0.72-0.56-0.12-0.72-1.32-1.03v-1.72l-0.71-1 0.28-0.88 0.59-0.28v0.59l0.72 0.13 1.44-1.31 2.15-0.57 1.32 0.57 2.43-1.85 1.72 0.41 0.88-0.84 0.15-0.88 0.57 0.16 0.56-0.88 1.03-0.15 0.72 0.43-0.44 1.03 1 1.13 1.16-1.72 0.43 1.31 2.29 1.72 1.31-0.15 4.09 0.21 3.38 0.07 1.18-0.41 0.29-1.16 1.28 0.72 1.15-0.72 1.72 0.72 3.19-1.87 1.16 0.72 0.37-0.28h-0.53l-1-1-0.16-1.04-0.43 0.16 0.43-0.28-0.43-5.91 0.59-2.15-0.88-0.44-0.12-2.16-0.88-1.15v-1.72l0.57-0.28-0.72-1.03 0.44-0.88h-0.72l-0.28-1.44-0.29 0.44-1.03-0.28-0.12-2-1 0.56-1.03 0.28 1.31-0.56 0.56-1.44-1.59-1.03-0.28-1.44-0.85 0.16 1-0.28-0.15-1.16 0.43 0.88 0.72 0.12 0.44-1.28v-0.59l-1.72-0.13v-1.87l0.28 0.72 0.72-1 1.88-0.6-0.72-0.28-0.44-1.59-0.44 0.15 0.28-0.71-0.71-0.16 0.15-0.44 0.56 0.31-0.4-1.03 0.84-0.72-0.28 1.88 1.72 3.47 1-0.72-1.13-5.19 0.41-1.87-0.72 1.87 0.44-1.87h0.72l0.15-3.32-2.03-1.71 1.32 0.56 0.28-3.03 1.31-3.72h-1.88l0.85-0.16 0.44-3.87 3.87-7.38-0.84 0.44-1-0.72-0.44-3.03-0.72-0.41 0.56 0.57-0.72 0.59 0.29 1-0.29 0.56-0.71-0.28 0.71 0.88-0.56 0.12-0.59 1.31-0.44-0.72 1.03-0.87-0.31-0.84 0.31-0.04v-0.84l-0.15-0.03 0.15-1-0.72-0.84-0.87 0.12v0.44l-0.16-0.72h1.03l0.13-0.56-1-0.44-0.72-1.16 0.44-0.43-1.16-0.41 0.44-0.59 0.72 0.28-0.72-3.32 0.72-0.12-0.44-0.44 0.87 0.16v-0.88h-0.09l0.66-0.72-0.88 0.13 0.88-0.44 0.28 0.31 0.59-0.87-2.75 1.28-2.15-0.12 2.15-0.16 0.88-1.28h0.84l-1-0.6 0.72 0.16 0.59 0.56v-4.03l-1.43-0.28-0.32-1-0.72 0.56-3-1-0.87-1.87-1.44-0.28-0.31 0.56 0.31-0.72-0.44-0.12 2.04 0.28 0.4-0.44-1.72-2.44-1.15-2.87 0.28-1-0.85 0.28 1-0.6-0.28-2.71-1.15-1.88h-0.44l-0.28 1h-0.16l0.16-1.59-2.03-0.57-1.28-1.59-0.6-0.72 0.56 0.72-0.4-0.28-0.41 0.19 0.25-0.19-1.84-2.59-0.88-1.88-0.59 0.28 0.44-0.4-1.28-2.6-0.44-4.9-1.16-2.6-0.31 0.56h-0.84l-1-1.56-1-0.31 1 0.16-0.72-2.32 0.43-0.4-0.59-0.44-0.16 0.41-2-1.41-0.87-0.16-0.13 0.88 0.72-0.16v0.72l0.88 0.72 0.12 0.44-0.4-0.16 0.28 1-1-1.28-1.47-0.88-0.56 0.88 0.12 0.16-0.4 1-0.44-1.72-0.88-0.32-0.43 0.72-0.41-1.28-0.16 1.6-0.59-1.6 0.44-0.28-1.16-2.16h-0.41l-0.43-2.03-0.88 1 0.28-1.56-2.87-1.59-0.56-1.16 0.28-1.16-0.44 0.32-0.44-1.19 0.44-0.25-0.72-0.47h0.59l-1.59-1.12-0.56-2.04v1.44h-0.44l0.28-1.15-0.87-0.57-0.13 1.16-0.87 0.28 0.43 0.44-0.59-0.44-0.12 1.72-0.44-1.72-1.28-1.72 0.72 0.13v-0.44l-1.91-1.44 1.59 0.31 0.44-0.59-1.16-2.16-0.28-2.31-0.59-0.28v-0.44l0.75 0.44 1-1.28-0.16-1-1.12-0.59h0.56l0.16-1-1.03-0.88 1.15-4.47-0.44 0.88 0.44-1.44-0.72 0.56-0.28-1.15 1.72 0.59-0.12-1.44 1.71-5.06-1.31-1.13 0.31-3.18-0.59-0.13 0.44 0.85-1 1.03 0.28 1.12-1-0.12-0.44-0.88 0.88 0.72v-2l-1.03 0.13 0.31-0.41-0.75-1.88 0.59 0.41 0.16-0.41 0.84 1.29 1-1.72-1.44-0.72-0.28-2.19-0.59 0.47 0.47 0.84-0.31 1.32-0.16-0.72-0.72 0.4 0.31-0.56 0.41-0.16-1-0.71 0.72-0.16-0.44-0.84 0.44 0.43 0.28-0.59-2-1-1 2.16 0.56 0.87-0.56-0.28 0.12 0.44 1.16 0.72-1.28-0.44 1.56 1.56-0.72-0.56-0.4 0.15 2.15 1.44-0.15 0.56-0.57-0.43v0.59l-0.31-1.16-1-0.28 0.72 2.6 1 0.28h-0.84l0.43 1-1.43-2.6-0.88 0.72 0.28-0.56-0.56-0.59 0.56 0.15-1.28-1.15 0.44 1.43-0.44-1.28-0.87-0.15-0.88-1.44-2.28-1.88v-0.59l-2.03-0.41-0.84-1.03 0.4-0.84-0.72-0.72v-1.16l-1.28-1.31-0.15-1.72-0.85-0.84-2.31 1.28-1.28 3.47 1.28 0.41-1.44 0.15 2 7.94 0.6 0.72-1.32-1.03-0.56-2.28-1.72-1.6-1.59-3.19-0.72 1.16-2.59 1.59 0.28 0.29-0.88-0.16-1 1.91 0.72-2.16 1.44-0.88 0.28-1.87-0.28-1.16-1 0.57-0.72-0.41h0.87l-0.59-1.59-1.56-0.16-0.88 1-0.59-0.28 1.47-0.72 1.12-0.56-0.84-2.32-0.44 0.16 0.56-0.59-0.84-2.72 0.28-1.16-1.31-2.87 0.44-2.19h-0.85l0.72-0.41-0.59-0.59-0.13-1.56 0.72-0.32 0.56 0.44 0.16-0.44-0.72-0.4-0.15-2.03 1.59-2.32-0.59-0.4-0.72 1.12-0.13-0.72h-0.87l-0.44-0.56 0.59-1.15-1.15 0.28-0.16-0.85-1.16 0.57-0.12 0.71v-1.15l-0.59-0.44h0.87l0.16-1.12 0.84 0.28v-0.44l-1.56-0.72h1.28l-0.16-3.16h-0.72l-0.4-0.87-1.88 1.72 0.57-1-0.72-0.16 1-0.84-0.57-1-0.71 0.12 0.56-0.28 0.15 0.16 0.29 0.28 0.43-1.88-1.15-0.31h1.28l0.15 0.6 0.44-2.04h-0.59l-0.72-1.12-0.28-0.88-0.56-0.28-0.29 0.85-0.59-1.57-1.56 0.13-0.6 0.59 0.29-1.43 0.43 0.12-0.43-0.72h1.15l-0.56-0.84-0.72 0.28-1.16-1.16-1 0.28-0.59-1-1.44 1 0.28-2-1.15-0.31 0.28-0.56h1.03l-2.59-2.31v-1l-1 0.15 1.28-1.03-2.16-2.72 0.88 0.57 1.12-1.6-0.72-1.72 2.03 1.32 1-0.72v-0.72l0.44 2.15 0.72 0.88 1.88 0.41-1-1.29 0.71-0.31-0.28-0.28h-0.59l-0.84-1.16 0.12-1-0.44-0.28 0.6-0.72-1.72-1.87 0.84-0.16-0.56-0.28v-1l-0.59-0.15-0.57 1.03-1.31-0.16 0.28-1-0.56 0.13v-0.57l0.56-1.15-0.84 1-0.16-1.28-0.28 1.28-0.72-0.28 0.56-0.88-1 0.44 0.44-0.85-0.72 0.13v-2.88l-0.87 0.72-1.72-1.15-0.44 1.43 1.16 0.44-1.31 0.81-0.41-0.09-0.16 0.59-0.28-0.15-0.15-0.56-1.57-0.32 0.13-0.28-1.56-1.56 0.4-0.31-1.28-1 0.28-0.57 0.72 0.13-0.12-1.28-0.6 0.12-0.44-0.84-1.71-0.44 0.28 0.56-1.16-0.71-0.56-1.72-2.47 0.87-1.13-0.31-1.03-1.16 0.32 0.75-0.88-1.47-0.28-3.15-0.59-0.88-1.72-0.28-0.28 1.72 0.71 1.75 0.57 0.16-0.44 0.12-2.72-0.72-1.87-2.87-0.44 0.44 0.28-0.88 0.31 0.16 0.13-0.88-1.57-0.56 1.44-0.16-0.31-1.31-0.84-0.41 0.84 0.29v-0.6l-0.41-1.28-0.18 0.06-0.13-0.34-1.12-1.88-0.66-1.81-0.5 0.81-3.19-0.87-1.56 0.87-0.16-0.71-1.43-0.44-0.44 0.72 0.15-0.88h-0.71l-0.32 1.16-0.28-1.72-1.56-2.59 0.56-1-1-2.04 0.13 0.72-1.57 2.32-2.03-0.29-0.87-0.87-0.41 0.16 0.28-0.72-1.15-0.44-0.28-1.47-3.04-0.28-4.62-3.44-4.44-6.06 2.28-5.75-0.72-0.16 0.72-0.56-0.12-1.03-0.28-0.41 0.72 0.16-0.16-0.88-0.44-0.31-0.12 0.44-0.44-0.72-0.53 0.13-0.35-0.57-0.87-0.12-0.56 0.56 0.43-0.84-0.71-0.32 0.43-0.12-0.31-0.59-0.72 0.31-0.4-2.6v1l-2.91-4.46-0.28-2.16 0.87-2 0.72-1.31-0.72-0.28 0.72 0.12 0.44-1.28 0.12 0.44 0.72-0.28v-1.91l0.72-1.13-0.72-2.03 0.72-0.28-0.28-1.72 1.31-1.43-0.31-1.32-0.56 0.88-0.13-0.06 0.57-0.94-1.44-2.31 0.44-3.04-1.6-2-1.15-5.18-1.29-2.03 0.29-1.72 1.56-2.6-0.85-0.87-0.43 0.87-0.72 0.16-0.56-1.03-1.88 1.31-0.44-0.59 0.44-0.72-0.59-0.28-0.72-1.88-0.85-0.72-0.31-1-2.15-1.59-2.32-3.88-0.12-1.75-1.44-0.56 0.28-3.15 0.88-1.44-0.88-0.31 1.88 0.15-1.16-2.75 1.16-2.44-1.6-3.87-1.43-0.28 0.87-2.47-0.59-0.88 0.43-2.15-1.15-2.16 0.28-1.87-2.56-1.57 1.43 0.29 0.29-0.88-0.6-1h-0.4l1.56-2.75-0.28-0.72 1.87-1-0.44-1.44-0.71 0.88-1.16-0.16-0.44-2.87-0.72-0.72 0.72 0.44 1.03-2.03 2-1.88-0.12-0.84h-1.75l-1.44-2.19 0.28-1.13-3-0.43-0.44-0.72-0.43 0.56v-0.72l-0.88 0.28-0.72-1.43-1.43-0.72v-1.57l-0.72-0.43-0.28-1.44-2.72-0.59-0.44-1.29-2.47-0.15-1.56-2.16v-1.15l1-1.72-1.6-0.16 0.44-2.59-2.03-2.72h-0.72l-0.84 1.72-1.31 0.72 0.31 0.28-0.75-0.13-1.28 0.72-1.6-0.28-1.56-1.47-0.59 0.16v1.72l-0.72 1.59-3.47 2.31-2-0.15-0.44 0.87-0.28-1.03-1.72-0.41-1.31-1.03-1.44-2.28-1-4.03-0.28-5.19-1.59-1.44-0.57-2.59-1.59-2.75 1-4.31 0.88-1.28-1.16-0.16h1l0.44-3.03-0.44-1.28-1.28-1.31 0.12-3.88-0.4-1.31v-5.19l1.28-2.28-1.6 0.44-0.84-0.44-1.31 0.84 0.44 1.03-0.72 0.57v-0.57l-0.88-0.31 0.6-0.28-0.72-0.28 0.12-1.72 1.88-3.91-0.57-0.28 1-1.31-3.15-1.84-0.88-1.6-0.87 0.44 1.03-0.72-0.16-2.03-0.59-0.72-1.72-1.15h-1.16l0.32 0.43-0.72-0.72-0.44 0.6-0.59-0.6 0.59-4.31-0.87-1.15 0.87 0.59 2.59-4.19 1 0.16 0.29-0.6-0.72-0.43-1 0.56-0.6-1.56-1.28-0.72-1.72 1-1.43-0.16-3.04-2.72 0.29-5.18-0.72-4.47 1.15-2-0.59-1.72-1.13-1.31v-5.35l-1.75-3.31-1.15 0.31-0.56 0.85 0.56-1.44-0.72-0.44-1.28 0.31 0.72-1.15-0.72-1v0.4l-0.88-0.4-0.4 0.56 0.56 1.44-0.88-0.72-0.4 0.72-0.47 0.15 0.59-3.03 0.72-0.15 1.72-2.16-1.28-0.56-0.72-1.16zm112.97 239.53 0.06-0.06-0.22-0.38 0.16 0.44zm-0.16-0.44-0.62-1.78-0.6-0.43 1.22 2.21zm45.28 84.63h0.47l-0.28 0.41-0.19-0.41zm46.5 50.72-0.56 1.53-0.12-1.16 0.68-0.37zm8.1 19.19 0.44 0.34h-0.88l0.44-0.34zm4.03 3.37h0.12l0.16 1-0.28-1z"/>
</svg>
