<?xml version="1.0" encoding="UTF-8" standalone="no"?>
<svg xmlns:inkscape="http://www.inkscape.org/namespaces/inkscape" xmlns:rdf="http://www.w3.org/1999/02/22-rdf-syntax-ns#" xmlns="http://www.w3.org/2000/svg" xmlns:cc="http://creativecommons.org/ns#" xmlns:dc="http://purl.org/dc/elements/1.1/" xmlns:sodipodi="http://sodipodi.sourceforge.net/DTD/sodipodi-0.dtd" xmlns:svg="http://www.w3.org/2000/svg" xmlns:ns1="http://sozi.baierouge.fr" xmlns:xlink="http://www.w3.org/1999/xlink" id="svg2217" sodipodi:docname="aiga_rail_transportation_.svg" inkscape:export-filename="/home/joanna/gfx/vector/aiga/aiga_rail_transportation_.png" viewBox="0 0 313.62 471.66" sodipodi:version="0.32" inkscape:export-xdpi="38.166965" inkscape:output_extension="org.inkscape.output.svg.inkscape" inkscape:export-ydpi="38.166965" inkscape:version="0.46" sodipodi:docbase="/datas/Projs/Cliparts Stocker/tmp/AIGA">
  <sodipodi:namedview id="base" bordercolor="#666666" inkscape:pageshadow="2" inkscape:window-width="641" pagecolor="#ffffff" inkscape:zoom="0.43415836" inkscape:window-x="0" showgrid="false" borderopacity="1.0" inkscape:current-layer="svg2217" inkscape:cx="305.25953" inkscape:cy="417.84947" inkscape:window-y="0" inkscape:window-height="715" inkscape:pageopacity="0.0"/>
  <path id="path2229" style="fill:#000000" d="m157.09 39.375l-74.09 0.063c-34.507 0-59.906 27.714-59.906 57.906v213.85c0 29.25 22.894 53.26 45.906 56.97l-69 103.5h39.812l49.376-72.35h67.562 0.06 0.07 67.56l49.37 72.35h39.81l-69-103.5c23.02-3.71 45.91-27.72 45.91-56.97v-213.85c0-30.188-25.4-57.902-59.91-57.902l-73.53-0.063zm-29.34 12.406h29 0.06 0.07 29c5.24 0 9.81 4.407 9.81 9.657v17c0 5.25-4.31 9.75-9.81 9.75h-29-0.07-0.06-29c-5.5 0-9.81-4.501-9.81-9.75v-17c0-5.25 4.56-9.657 9.81-9.657zm-42.75 47.938h71.75 0.13 71.74c19.5 0 29.85 13.971 29.85 29.971v38.5c0.15 18.5-13.34 29.81-29.85 29.81h-71.74-0.07-0.06-71.75c-16.5 0-29.996-11.31-29.844-29.81v-38.5c0-16 10.344-29.971 29.844-29.971zm-3.25 184.72c14.505 0 26.25 11.74 26.25 26.25 0 14.5-11.745 26.25-26.25 26.25s-26.25-11.75-26.25-26.25c0-14.51 11.745-26.25 26.25-26.25zm149.5 0c14.51 0 26.28 11.74 26.28 26.25 0 14.5-11.77 26.25-26.28 26.25s-26.25-11.75-26.25-26.25c0-14.51 11.74-26.25 26.25-26.25z"/>
  <path id="path2233" style="fill:#000000" d="m134.77 33.184c-9.17 0-16.59-7.428-16.59-16.593 0-9.163 7.42-16.591 16.59-16.591 9.16 0 16.59 7.428 16.59 16.591 0 9.165-7.43 16.593-16.59 16.593z"/>
  <path id="path2235" style="fill:#000000" d="m178.85 33.184c9.17 0 16.59-7.428 16.59-16.593 0-9.163-7.42-16.591-16.59-16.591-9.16 0-16.59 7.428-16.59 16.591 0 9.165 7.43 16.593 16.59 16.593z"/>
  <metadata>
    <rdf:RDF>
      <cc:Work>
        <dc:format>image/svg+xml</dc:format>
        <dc:type rdf:resource="http://purl.org/dc/dcmitype/StillImage"/>
        <cc:license rdf:resource="http://creativecommons.org/licenses/publicdomain/"/>
        <dc:publisher>
          <cc:Agent rdf:about="http://openclipart.org/">
            <dc:title>Openclipart</dc:title>
          </cc:Agent>
        </dc:publisher>
        <dc:title>aiga rail transportation</dc:title>
        <dc:date>2009-04-27T10:16:00</dc:date>
        <dc:description>Set of international airport symbols.\n\nSource: http://www.aiga.org/content.cfm/symbol-signs\n\nConverted to SVG by Jean-Victor Balin.</dc:description>
        <dc:source>https://openclipart.org/detail/25364/aiga-rail-transportation-by-anonymous-25364</dc:source>
        <dc:creator>
          <cc:Agent>
            <dc:title>Anonymous</dc:title>
          </cc:Agent>
        </dc:creator>
        <dc:subject>
          <rdf:Bag>
            <rdf:li>aiga</rdf:li>
            <rdf:li>aiga no bg</rdf:li>
            <rdf:li>black and white</rdf:li>
            <rdf:li>externalsource</rdf:li>
            <rdf:li>icon</rdf:li>
            <rdf:li>map symbol</rdf:li>
            <rdf:li>railway</rdf:li>
            <rdf:li>sign</rdf:li>
            <rdf:li>silhouette</rdf:li>
            <rdf:li>station</rdf:li>
            <rdf:li>symbol</rdf:li>
            <rdf:li>train</rdf:li>
            <rdf:li>transportation</rdf:li>
          </rdf:Bag>
        </dc:subject>
      </cc:Work>
      <cc:License rdf:about="http://creativecommons.org/licenses/publicdomain/">
        <cc:permits rdf:resource="http://creativecommons.org/ns#Reproduction"/>
        <cc:permits rdf:resource="http://creativecommons.org/ns#Distribution"/>
        <cc:permits rdf:resource="http://creativecommons.org/ns#DerivativeWorks"/>
      </cc:License>
    </rdf:RDF>
  </metadata>
</svg>