<?xml version="1.0" encoding="UTF-8"?>
<!-- Created with Inkscape (http://www.inkscape.org/) -->
<svg width="103.98" height="88.525" version="1.1" viewBox="0 0 103.98213 88.525385" xmlns="http://www.w3.org/2000/svg" xmlns:cc="http://creativecommons.org/ns#" xmlns:dc="http://purl.org/dc/elements/1.1/" xmlns:rdf="http://www.w3.org/1999/02/22-rdf-syntax-ns#">
 <path fill="white" d="m46.542 88.355c-10.679-1.3857-22.08-5.7135-31.429-11.931-6.4918-4.3173-8.8464-6.9837-9.2614-10.488-0.34487-2.9119 1.0539-6.7161 3.6567-9.9452 1.0149-1.2591 1.0782-1.4542 0.70042-2.16-0.34148-0.63806-0.33973-0.917 0.0099-1.5702l0.42509-0.7943 1.629 0.92977c2.5572 1.4596 9.9786 4.6608 14.15 6.1035 4.963 1.7166 9.7632 3.0161 14.252 3.8583 5.1669 0.96938 14.147 1.1893 19.307 0.47291 9.3517-1.2984 19.941-4.6578 29.495-9.3569 4.3699-2.1495 5.241-2.0352 4.142 0.54358-0.12713 0.29828 0.30259 1.1538 1.1252 2.24 1.7381 2.2951 2.8218 4.6829 3.2388 7.1357 0.28049 1.6501 0.24304 2.3028-0.22379 3.9008-0.4856 1.6623-0.89003 2.2437-3.0216 4.344-3.1528 3.1065-8.2091 6.442-14.275 9.4168-7.6767 3.7647-14.395 5.9378-21.76 7.0382-2.8899 0.4318-9.716 0.57856-12.16 0.26144zm-0.16-32.294c-7.7929-0.94287-15.989-2.9726-23.36-5.7852-5.5305-2.1102-12.34-5.2967-13.353-6.249-0.74937-0.70399-0.9894-2.291-0.40148-2.6543 0.17886-0.11054-0.50514-0.81327-1.52-1.5616-2.4544-1.8099-5.8162-5.4854-6.7941-7.428-1.0631-2.1119-1.2697-5.3182-0.45424-7.0475 1.3118-2.7818 4.5307-5.1419 14.052-10.303 8.3399-4.5206 23.137-11.125 30.284-13.516 5.0831-1.7007 7.4463-1.9017 11.147-0.94828 7.3985 1.906 25.348 9.8331 36.993 16.338 8.8349 4.9348 11.007 7.1936 11.007 11.448 0 1.4529-0.2205 2.3204-0.97197 3.8243-1.1619 2.3252-4.3898 5.9045-6.8575 7.6041-1.2122 0.83485-1.6788 1.3327-1.4569 1.5546 0.47886 0.47886 0.39819 1.5535-0.17843 2.3767-0.67955 0.9702-5.5586 3.3787-11.976 5.9118-11.342 4.4768-19.495 6.2762-29.279 6.4616-3.168 0.06003-6.264 0.04817-6.88-0.02637zm9.4324-12.28c5.0067-3.6657 7.0624-5.5216 7.9414-7.1695 0.99013-1.8564 0.96955-7.3813-0.0389-10.436-0.37766-1.144-0.6885-2.7863-0.69078-3.6495-4e-3 -1.4196 0.11929-1.6869 1.2874-2.7982l1.2916-1.2286-1.7902-3.0418c-0.98462-1.673-1.8503-3.0418-1.9238-3.0418-0.0735 0-0.60508 0.28746-1.1813 0.6388-1.278 0.7792-3.4153 0.83473-4.8236 0.12532-0.56326-0.28373-1.7136-1.089-2.5564-1.7894l-1.5323-1.2735-1.3911 1.2823c-0.76511 0.70525-1.8324 1.5105-2.3718 1.7894-1.3574 0.70194-3.508 0.64162-4.7802-0.13406-0.57625-0.35134-1.1115-0.6388-1.1895-0.6388-0.078 0-0.9438 1.3627-1.924 3.0282l-1.7822 3.0282 1.2918 1.2918c1.1485 1.1485 1.2913 1.4603 1.2876 2.8118-2e-3 0.836-0.29752 2.456-0.65611 3.6-0.86264 2.7521-1.1222 6.3908-0.6259 8.7753 0.32954 1.5834 0.66533 2.1819 2.0403 3.6368 0.90521 0.95781 3.0138 2.754 4.6858 3.9914 1.672 1.2375 3.544 2.6534 4.16 3.1464s1.1709 0.90402 1.2332 0.91328c0.0623 0.0092 1.8799-1.2767 4.0392-2.8576z" stroke-width=".32"/>
</svg>
